<svg width="261" height="249" viewBox="0 0 261 249" fill="none" xmlns="http://www.w3.org/2000/svg">
<path d="M52.3292 104.338C51.3594 103.634 50.4648 102.836 49.5315 102.091C37.8942 92.8055 35.4162 75.7144 46.3133 64.7235C50.6025 60.4736 56.3776 58.0604 62.4154 57.9951C69.2593 57.9856 75.3745 60.9136 80.1794 65.6819C82.5323 68.5424 83.892 70.1959 85.1541 73.6737C88.0137 72.6157 90.6082 71.2691 93.265 70.2421C95.8648 69.2372 101.6 68.8787 104.682 68.5779C105.683 69.1784 108.834 70.9406 109.272 71.875C107.532 72.2971 105.673 72.401 103.616 72.9057C104.223 75.4669 104.322 75.7871 103.551 78.3123C98.8613 81.0737 95.7251 82.5284 90.6532 79.6475C90.2953 79.0689 89.7472 77.8667 89.4253 77.2107C79.9194 81.6071 73.7814 84.8642 66.3977 92.815C55.5318 104.516 49.016 120.019 49.5273 136.047C50.0898 153.678 60.5565 168.518 75.2112 177.646C82.288 181.902 89.2486 185.17 95.3312 190.983C105.662 200.855 109.425 211.357 109.925 225.271L93.1271 225.321C79.2452 225.339 69.5643 225.089 57.3712 217.067C31.0597 199.756 27.0463 162.851 44.2132 137.836C44.5699 125.661 46.1414 115.173 52.3292 104.338Z" fill="#14253D"/>
<path d="M168.821 65.2514C173.79 60.4995 179.406 57.8389 186.412 58.0084C192.527 58.1689 198.318 60.7941 202.469 65.2876C206.786 69.8472 209.073 75.9618 208.805 82.2357C208.497 91.3261 203.306 99.0519 195.972 104.149C201.473 116.094 203.916 124.397 203.74 137.851C212.45 150.05 215.828 166.534 213.4 181.239C211.219 195.196 203.556 207.706 192.113 215.99C186.407 220.054 180.839 222.37 174.051 224.037C167.615 225.617 161.787 225.317 155.235 225.319L137.95 225.302C137.901 212.845 142.808 200.88 151.589 192.045C158.421 185.153 164.265 182.737 172.175 177.928C188.202 168.186 198.692 153.047 198.585 133.823C198.497 118.081 191.352 102.28 180.19 91.2083C174.705 85.7678 166.742 80.0371 159.328 77.6C159.421 75.4427 160.406 74.8764 160.977 72.6399C161.709 72.9817 162.469 73.3763 163.196 73.7385C165.051 69.9857 166.028 68.3546 168.821 65.2514Z" fill="#14253D"/>
<path d="M95.0543 32.1404C87.7614 28.4776 85.174 19.3455 92.0967 14.1956C94.2263 12.6148 96.9003 11.9527 99.5215 12.3572C103.112 12.9075 104.96 15.0121 106.959 17.7218C120.418 12.4204 129.408 12.5345 142.873 17.8106C144.433 15.2385 146.001 13.3438 149.108 12.5467C151.724 11.8746 154.501 12.2692 156.826 13.6438C164.572 18.3109 162.52 28.5692 154.518 32.1817C158.262 37.2563 157.282 42.3717 158.964 47.5725C159.284 48.5649 164.251 54.5858 165.405 56.7158C166.807 59.3024 167.868 63.5186 168.821 65.2514C166.028 68.3546 165.051 69.9857 163.196 73.7385C162.469 73.3763 161.709 72.9817 160.977 72.6399C160.406 74.8764 159.421 75.4427 159.328 77.6C157.804 80.4322 154.753 81.7072 151.558 80.9977C145.918 79.745 144.347 78.5911 145.292 72.7824C143.526 72.4422 141.754 72.1381 139.976 71.8705C138.15 71.6776 134.115 75.656 132.236 76.7527C122.257 82.5773 117.422 77.1135 109.272 71.875C108.834 70.9406 105.683 69.1784 104.682 68.5779C101.6 68.8787 95.8648 69.2372 93.265 70.2421C90.6082 71.2691 88.0137 72.6157 85.1541 73.6737C83.892 70.1959 82.5323 68.5424 80.1794 65.6819C80.6664 65.1125 84.0779 55.886 85.4677 54.0464C86.6148 52.5279 90.101 48.8568 90.5549 47.5146C92.2203 42.5894 91.726 36.6098 95.0543 32.1404Z" fill="white"/>
<path d="M153.617 32.8703C153.777 32.7805 154.34 32.3217 154.518 32.1817C158.262 37.2563 157.282 42.3717 158.964 47.5725C159.284 48.5649 164.251 54.5858 165.405 56.7158C166.807 59.3024 167.868 63.5186 168.821 65.2514C166.028 68.3546 165.051 69.9857 163.196 73.7385C162.469 73.3763 161.709 72.9817 160.977 72.6399C160.406 74.8764 159.421 75.4427 159.328 77.6C157.804 80.4322 154.753 81.7072 151.558 80.9977C145.918 79.745 144.347 78.5911 145.292 72.7824C143.526 72.4422 141.754 72.1381 139.976 71.8705C138.15 71.6776 134.115 75.656 132.236 76.7527C122.257 82.5773 117.422 77.1135 109.272 71.875C108.834 70.9406 105.683 69.1784 104.682 68.5779C101.6 68.8787 95.8648 69.2372 93.265 70.2421C90.6082 71.2691 88.0137 72.6157 85.1541 73.6737C83.892 70.1959 82.5323 68.5424 80.1794 65.6819C80.6664 65.1125 84.0779 55.886 85.4677 54.0464C86.6148 52.5279 90.101 48.8568 90.5549 47.5146C92.2203 42.5894 91.726 36.6098 95.0543 32.1404L96.1002 32.6834C93.1768 40.9675 92.2152 47.4501 95.8453 55.7886C98.2192 61.2414 104.956 64.6393 109.528 68.0928C112.664 70.4607 115.628 73.7559 119.203 75.4639C122.335 76.5478 127.395 77.1267 130.451 75.4986C134.575 73.3009 137.197 70.2024 140.609 67.179C141.758 66.161 144.826 64.3592 146.248 63.4285C150.331 60.7312 153.386 56.7365 154.92 52.0895C156.913 46.0239 156.157 40.417 154.174 34.4486C154.023 33.9959 153.717 33.3076 153.617 32.8703Z" fill="#BAC3D1"/>
<path d="M144.436 68.1157C152.302 70.2068 152.707 68.2886 160.977 72.6399C160.406 74.8764 159.421 75.4427 159.328 77.6C157.804 80.4322 154.753 81.7072 151.558 80.9977C145.918 79.745 144.347 78.5911 145.292 72.7824C143.526 72.4422 141.754 72.1381 139.976 71.8705C140.296 70.8014 143.21 69.2475 144.436 68.1157Z" fill="#14253D"/>
<path d="M106.959 17.7218C120.418 12.4204 129.408 12.5345 142.873 17.8106C142.222 19.585 141.715 20.6732 141.72 22.5854C125.542 21.4965 126.682 38.0407 124.475 49.2799C124.106 42.2402 123.517 30.2775 117.914 25.1011C115.098 22.4993 111.475 22.2936 107.866 22.5192C107.646 20.6606 107.548 19.4985 106.959 17.7218Z" fill="#BAC3D1"/>
<path d="M142.873 17.8106C144.433 15.2385 146.001 13.3438 149.108 12.5467C151.724 11.8746 154.501 12.2692 156.826 13.6438C164.572 18.3109 162.52 28.5692 154.518 32.1817C154.34 32.3217 153.777 32.7805 153.617 32.8703L152.183 30.6032C150.378 28.0514 147.833 24.8352 144.794 23.7089C143.611 23.1457 142.956 22.9551 141.72 22.5854C141.715 20.6732 142.222 19.585 142.873 17.8106Z" fill="#14253D"/>
<path d="M144.794 23.7089C146.335 23.1242 147.595 20.2721 149.325 19.9522C157.465 18.4469 156.906 26.7633 152.183 30.6032C150.378 28.0514 147.833 24.8352 144.794 23.7089Z" fill="#717A92"/>
<path d="M95.0543 32.1404C87.7614 28.4776 85.174 19.3455 92.0967 14.1956C94.2263 12.6148 96.9003 11.9527 99.5215 12.3572C103.112 12.9075 104.96 15.0121 106.959 17.7218C107.548 19.4985 107.646 20.6606 107.866 22.5192C106.733 22.9926 105.592 23.4466 104.443 23.8809C101.265 26.0256 99.9507 27.2149 97.6646 30.3047C97.1863 31.0947 96.6856 31.9808 96.1002 32.6834L95.0543 32.1404Z" fill="#14253D"/>
<path d="M97.6646 30.3047C95.8609 28.4616 94.4179 26.8957 94.3975 24.1417C94.431 21.6962 95.9301 19.4915 98.5682 19.6428C101.9 19.8338 102.613 21.889 104.443 23.8809C101.265 26.0256 99.9507 27.2149 97.6646 30.3047Z" fill="#717A92"/>
<path d="M136.602 42.0683C139.204 42.0841 141.277 42.6162 142.135 45.4136C142.589 46.8968 142.434 48.4994 141.706 49.8688C140.788 51.5806 139.574 52.2293 137.812 52.7719C135.159 52.8311 133.089 51.6625 132.402 48.9754C131.999 47.4119 132.251 45.7518 133.1 44.3782C134.049 42.8431 134.937 42.4456 136.602 42.0683Z" fill="#14253D"/>
<path d="M111.309 42.0186C118.525 41.5978 119.429 51.0917 113.123 52.7564C112.141 52.7698 111.409 52.7466 110.483 52.3634C109.167 51.8277 108.121 50.7858 107.58 49.4716C107.024 48.0637 107.059 46.4907 107.678 45.1092C108.487 43.3073 109.573 42.6819 111.309 42.0186Z" fill="#14253D"/>
<path d="M123.661 64.0587C124.767 63.9891 125.875 64.1544 126.912 64.5436C131.609 66.3229 130.425 70.2044 125.978 71.8359C119.34 72.3184 116.75 65.7364 123.661 64.0587Z" fill="#ED7F92"/>
<path d="M97.7919 108.842C99.9665 108.64 103.591 109.403 105.294 110.742C111.117 115.312 107.564 124.409 104.789 129.756C99.9645 139.049 94.0461 146.308 83.3792 148.019C66.6639 147.588 71.3391 128.633 78.3069 119.799C83.0555 113.665 90.0837 109.713 97.7919 108.842Z" fill="#14253D"/>
<path d="M95.8656 120.153C98.5423 119.921 100.925 121.843 101.265 124.508C101.606 127.173 99.7826 129.632 97.1336 130.08C95.3216 130.387 93.4872 129.677 92.3543 128.23C91.2215 126.782 90.9723 124.831 91.705 123.146C92.4377 121.46 94.0347 120.312 95.8656 120.153Z" fill="white"/>
<path d="M147.785 109.039C171.461 107.522 186.375 143.339 167.947 147.719C164.078 148.605 159.421 147.222 156.159 145.116C150.611 141.517 146.633 136.118 143.56 130.294C141.026 125.49 137.789 118.154 141.062 112.923C142.604 110.457 145.09 109.605 147.785 109.039Z" fill="#14253D"/>
<path d="M150.394 120.377C152.121 119.851 153.998 120.298 155.302 121.547C156.607 122.795 157.135 124.651 156.684 126.4C156.232 128.148 154.872 129.517 153.126 129.978C150.496 130.674 147.793 129.135 147.049 126.519C146.304 123.902 147.792 121.171 150.394 120.377Z" fill="white"/>
<path d="M119.363 183.867C123.807 183.756 128.254 183.792 132.696 183.976C131.666 186.25 129.53 191.917 129.059 194.267C128.788 195.618 129.979 200.498 130.321 202.024L133.686 216.473C134.37 219.376 135.372 223.08 135.647 225.976C132.751 228.064 129.177 231.279 126.397 233.667L124.007 235.619C121.033 232.768 115.497 228.381 112.206 225.731C114.524 215.277 117.129 205.032 119.34 194.503C118.074 191.672 116.508 187.039 115.316 183.951L119.363 183.867Z" fill="#0171B0"/>
<path d="M122.566 141.608C125.098 141.511 131.417 141.609 133.426 142.739C140.594 146.772 129.341 153.973 125.845 155.18C125.891 156.443 125.851 157.773 126.03 159.023C126.328 161.101 127.501 163.115 129.197 164.353C135.378 168.863 139.534 161.762 141.382 161.53C142.056 161.446 142.46 161.701 142.977 162.097C144.866 165.988 136.841 168.896 133.867 168.834C129.518 168.743 127.596 167.929 124.773 164.908C124.724 164.83 124.325 164.454 124.231 164.362C123.25 164.51 121.038 167.226 119.916 167.778C116.312 169.548 110.884 169.405 107.621 166.874C106.431 165.951 104.268 163.792 104.845 162.1C108.132 159.518 109.661 166.591 115.147 165.65C121.24 164.605 122.434 160.715 122.035 155.289C118.513 153.675 106.967 146.345 114.841 142.612C116.674 141.744 120.427 141.698 122.566 141.608Z" fill="#14253D"/>
</svg>
